# xmcd CD database file
#
# Track frame offsets:
#	150
#	20400
#	45076
#	64669
#	81833
#	111934
#	127827
#	150645
#	172437
#	203472
#	227779
#	247562
#	284424
#
# Disc length: 4162 seconds
#
# Revision: 0
# Processed by: cddbd v1.5.2PL0 Copyright (c) Steve Scherf et al.
# Submitted via: CDex 1.51
#
DISCID=9f10400d
DTITLE=Titz - The Album
DYEAR=1900
DGENRE=Jazz
TTITLE0=Magic
TTITLE1=Finally Alone
TTITLE2=Dancing On My Clouds
TTITLE3=Naa...Hey...Na
TTITLE4=Suchen
TTITLE5=Pearls On My Flat
TTITLE6=Mon
TTITLE7=Neil Conti
TTITLE8=Slow Mood
TTITLE9=Peter´s Walk
TTITLE10=Rich And Famous
TTITLE11=Opera
TTITLE12=Litho
EXTD=
EXTT0=
EXTT1=
EXTT2=
EXTT3=
EXTT4=
EXTT5=
EXTT6=
EXTT7=
EXTT8=
EXTT9=
EXTT10=
EXTT11=
EXTT12=
PLAYORDER=
